#N canvas 630 144 705 662 10;
#X declare -lib mrpeach;
#X obj -15 53 unpackOSC;
#X text 83 24 Receive motion data from isihlonono;
#X obj -15 25 udpreceive 3334;
#X obj -16 1 import mrpeach;
#X msg 52 442 \$1;
#X floatatom 52 466 5 0 0 0 X - -;
#X floatatom 112 467 5 0 0 0 Y - -;
#X floatatom 199 467 5 0 0 0 deltaX - -;
#X msg 199 442 \$3;
#X msg 112 443 \$2;
#X floatatom 285 467 5 0 0 0 deltaY - -;
#X floatatom 382 467 5 0 0 0 velocity - -;
#X msg 285 443 \$4;
#X msg 382 443 \$5;
#X obj 199 496 vsl 15 128 -1 1 0 0 empty empty empty 0 -9 0 10 -203904
-1 -1 8533 1;
#X obj 112 498 vsl 15 128 0 1 0 0 empty empty empty 0 -9 0 10 -203904
-1 -1 0 1;
#X obj 52 495 vsl 15 128 0 1 0 0 empty empty empty 0 -9 0 10 -203904
-1 -1 0 1;
#X obj 285 495 vsl 15 128 -1 1 0 0 empty empty empty 0 -9 0 10 -203904
-1 -1 5362 1;
#X obj 382 495 vsl 15 128 0 6 0 0 empty empty empty 0 -9 0 10 -203904
-1 -1 728 1;
#X msg -6 168 \$1;
#X floatatom -6 192 5 0 0 0 aX - -;
#X floatatom 50 192 5 0 0 0 aY - -;
#X floatatom 110 194 5 0 0 0 aZ - -;
#X msg 110 169 \$3;
#X msg 50 168 \$2;
#X floatatom 194 195 5 0 0 0 alpha - -;
#X floatatom 263 195 5 0 0 0 beta - -;
#X floatatom 338 196 5 0 0 0 gamma - -;
#X msg 194 171 \$4;
#X msg 263 171 \$5;
#X msg 338 171 \$6;
#X text 230 358 Rotation Data;
#X text 5 215 comment;
#X text 11 358 Acceleration Data;
#X obj 110 223 vsl 15 128 -10 10 0 0 empty empty empty 0 -9 0 10 -203904
-1 -1 111 1;
#X obj 50 223 vsl 15 128 -10 10 0 0 empty empty empty 0 -9 0 10 -203904
-1 -1 6285 1;
#X obj -6 221 vsl 15 128 -10 10 0 0 empty empty empty 0 -9 0 10 -203904
-1 -1 6364 1;
#X obj 194 223 vsl 15 128 -10 10 0 0 empty empty empty 0 -9 0 10 -203904
-1 -1 6422 1;
#X obj 264 222 vsl 15 128 -10 10 0 0 empty empty empty 0 -9 0 10 -203904
-1 -1 6448 1;
#X obj 339 222 vsl 15 128 -10 10 0 0 empty empty empty 0 -9 0 10 -203904
-1 -1 6308 1;
#X text 450 37 <-- channels 0-10 are broadcast;
#X obj 225 383 receive touch;
#X obj 225 127 receive motion;
#X text 79 488 comment;
#X obj 329 75 routeOSC /touch;
#X obj 329 100 send touch;
#X obj 435 75 routeOSC /motion;
#X obj 435 100 send motion;
#X obj 329 39 routeOSC /channel0;
#X obj -15 77 send channels;
#X obj 329 13 receive channels;
#X connect 0 0 49 0;
#X connect 2 0 0 0;
#X connect 4 0 5 0;
#X connect 5 0 16 0;
#X connect 6 0 15 0;
#X connect 7 0 14 0;
#X connect 8 0 7 0;
#X connect 9 0 6 0;
#X connect 10 0 17 0;
#X connect 11 0 18 0;
#X connect 12 0 10 0;
#X connect 13 0 11 0;
#X connect 19 0 20 0;
#X connect 20 0 36 0;
#X connect 21 0 35 0;
#X connect 22 0 34 0;
#X connect 23 0 22 0;
#X connect 24 0 21 0;
#X connect 25 0 37 0;
#X connect 26 0 38 0;
#X connect 27 0 39 0;
#X connect 28 0 25 0;
#X connect 29 0 26 0;
#X connect 30 0 27 0;
#X connect 41 0 4 0;
#X connect 41 0 9 0;
#X connect 41 0 8 0;
#X connect 41 0 12 0;
#X connect 41 0 13 0;
#X connect 42 0 19 0;
#X connect 42 0 24 0;
#X connect 42 0 23 0;
#X connect 42 0 28 0;
#X connect 42 0 29 0;
#X connect 42 0 30 0;
#X connect 44 0 45 0;
#X connect 46 0 47 0;
#X connect 48 0 44 0;
#X connect 48 0 46 0;
#X connect 50 0 48 0;
