#N canvas -540 81 450 221 10;
#X declare -lib mrpeach;
#X obj -3 60 unpackOSC;
#X msg -3 130 \$1;
#X floatatom -3 154 5 0 0 0 aX - -;
#X text 95 31 Receive motion data from isihlonono;
#X obj -3 32 udpreceive 3334;
#X floatatom 53 154 5 0 0 0 aY - -;
#X floatatom 113 156 5 0 0 0 aZ - -;
#X msg 113 131 \$3;
#X msg 53 130 \$2;
#X floatatom 197 157 5 0 0 0 alpha - -;
#X floatatom 266 157 5 0 0 0 beta - -;
#X floatatom 341 158 5 0 0 0 gamma - -;
#X text -19 180 Acceleration Data: aX aY aZ;
#X text 187 182 Rotation Data: alpha beta gamma;
#X obj 324 16 import mrpeach;
#X msg 197 133 \$4;
#X msg 266 133 \$5;
#X msg 341 133 \$6;
#X obj -3 88 routeOSC /performer0 /motion;
#X text 174 86 <-- multiple /performer channels exist;
#X obj -3 9 loadbang;
#X connect 0 0 18 0;
#X connect 1 0 2 0;
#X connect 4 0 0 0;
#X connect 7 0 6 0;
#X connect 8 0 5 0;
#X connect 15 0 9 0;
#X connect 16 0 10 0;
#X connect 17 0 11 0;
#X connect 18 2 1 0;
#X connect 18 2 8 0;
#X connect 18 2 7 0;
#X connect 18 2 15 0;
#X connect 18 2 16 0;
#X connect 18 2 17 0;
#X connect 20 0 4 0;
