#N canvas 222 181 476 236 10;
#X obj 36 57 unpackOSC;
#X msg 36 127 \$1;
#X floatatom 36 151 5 0 0 0 aX - -;
#X obj 36 85 routeOSC /motion;
#X text 33 8 Receive motion data from isihlonono;
#X obj 36 29 udpreceive 3334;
#X floatatom 92 151 5 0 0 0 aY - -;
#X floatatom 152 153 5 0 0 0 aZ - -;
#X msg 152 128 \$3;
#X msg 92 127 \$2;
#X msg 236 130 \$1;
#X floatatom 236 154 5 0 0 0 alpha - -;
#X floatatom 305 154 5 0 0 0 beta - -;
#X floatatom 380 155 5 0 0 0 gamma - -;
#X msg 380 130 \$3;
#X msg 305 130 \$2;
#X text 20 177 Acceleration Data: aX aY aZ;
#X text 226 179 Rotation Data: alpha beta gamma;
#X connect 0 0 3 0;
#X connect 1 0 2 0;
#X connect 3 0 1 0;
#X connect 3 0 9 0;
#X connect 3 0 8 0;
#X connect 3 0 10 0;
#X connect 3 0 15 0;
#X connect 3 0 14 0;
#X connect 5 0 0 0;
#X connect 8 0 7 0;
#X connect 9 0 6 0;
#X connect 10 0 11 0;
#X connect 14 0 13 0;
#X connect 15 0 12 0;
