#N canvas 433 64 491 510 10;
#X declare -lib mrpeach;
#X obj -2 53 unpackOSC;
#X msg 44 123 \$1;
#X floatatom 44 147 5 0 0 0 aX - -;
#X text 96 24 Receive motion data from isihlonono;
#X obj -2 25 udpreceive 3334;
#X floatatom 100 147 5 0 0 0 aY - -;
#X floatatom 160 149 5 0 0 0 aZ - -;
#X msg 160 124 \$3;
#X msg 100 123 \$2;
#X floatatom 244 150 5 0 0 0 alpha - -;
#X floatatom 313 150 5 0 0 0 beta - -;
#X floatatom 388 151 5 0 0 0 gamma - -;
#X obj 326 25 import mrpeach;
#X msg 244 126 \$4;
#X msg 313 126 \$5;
#X msg 388 126 \$6;
#X obj 44 81 routeOSC /performer0 /motion;
#X text 221 79 <-- multiple /performer channels exist;
#X msg 174 204 \$7;
#X msg 257 204 \$8;
#X floatatom 174 230 5 0 0 0 touchX - -;
#X floatatom 257 229 0 0 0 0 touchY - -;
#X text 55 170 Acceleration Data;
#X text 279 174 Rotation Data;
#X text 191 254 Touch Data;
#X msg 47 337 \$1;
#X floatatom 47 361 5 0 0 0 aX - -;
#X floatatom 103 361 5 0 0 0 aY - -;
#X floatatom 163 363 5 0 0 0 aZ - -;
#X msg 163 338 \$3;
#X msg 103 337 \$2;
#X floatatom 247 364 5 0 0 0 alpha - -;
#X floatatom 316 364 5 0 0 0 beta - -;
#X floatatom 391 365 5 0 0 0 gamma - -;
#X msg 247 340 \$4;
#X msg 316 340 \$5;
#X msg 391 340 \$6;
#X msg 177 418 \$7;
#X msg 260 418 \$8;
#X floatatom 177 444 5 0 0 0 touchX - -;
#X floatatom 260 443 0 0 0 0 touchY - -;
#X text 58 384 Acceleration Data;
#X text 282 388 Rotation Data;
#X text 194 468 Touch Data;
#X text 224 293;
#X obj 47 295 routeOSC /performer1 /motion;
#X connect 0 0 16 0;
#X connect 0 0 45 0;
#X connect 1 0 2 0;
#X connect 4 0 0 0;
#X connect 7 0 6 0;
#X connect 8 0 5 0;
#X connect 13 0 9 0;
#X connect 14 0 10 0;
#X connect 15 0 11 0;
#X connect 16 2 1 0;
#X connect 16 2 8 0;
#X connect 16 2 7 0;
#X connect 16 2 13 0;
#X connect 16 2 14 0;
#X connect 16 2 15 0;
#X connect 16 2 18 0;
#X connect 16 2 19 0;
#X connect 18 0 20 0;
#X connect 19 0 21 0;
#X connect 25 0 26 0;
#X connect 29 0 28 0;
#X connect 30 0 27 0;
#X connect 34 0 31 0;
#X connect 35 0 32 0;
#X connect 36 0 33 0;
#X connect 37 0 39 0;
#X connect 38 0 40 0;
#X connect 45 2 25 0;
#X connect 45 2 30 0;
#X connect 45 2 29 0;
#X connect 45 2 34 0;
#X connect 45 2 35 0;
#X connect 45 2 36 0;
#X connect 45 2 37 0;
#X connect 45 2 38 0;
