#N canvas 233 59 639 662 10;
#X declare -lib mrpeach;
#X obj -15 53 unpackOSC;
#X text 83 24 Receive motion data from isihlonono;
#X obj -15 25 udpreceive 3334;
#X obj -16 1 import mrpeach;
#X msg -6 424 \$1;
#X floatatom -6 448 5 0 0 0 aX - -;
#X floatatom 50 448 5 0 0 0 aY - -;
#X floatatom 110 450 5 0 0 0 aZ - -;
#X msg 110 425 \$3;
#X msg 50 424 \$2;
#X floatatom 194 451 5 0 0 0 alpha - -;
#X floatatom 263 451 5 0 0 0 beta - -;
#X floatatom 338 452 5 0 0 0 gamma - -;
#X msg 194 427 \$4;
#X msg 263 427 \$5;
#X msg 338 427 \$6;
#X text 230 614 Rotation Data;
#X msg 420 429 \$7;
#X msg 503 429 \$8;
#X floatatom 420 455 5 0 0 0 touchX - -;
#X floatatom 503 454 0 0 0 0 touchY - -;
#X text 433 615 Touch Data;
#X text 5 471 comment;
#X text 11 614 Acceleration Data;
#X obj 110 479 vsl 15 128 -10 10 0 0 empty empty empty 0 -9 0 10 -203904
-1 -1 6350 1;
#X obj 50 479 vsl 15 128 -10 10 0 0 empty empty empty 0 -9 0 10 -203904
-1 -1 6151 1;
#X obj -6 477 vsl 15 128 -10 10 0 0 empty empty empty 0 -9 0 10 -203904
-1 -1 6375 1;
#X obj 421 481 vsl 15 128 -10 10 0 0 empty empty empty 0 -9 0 10 -203904
-1 -1 6350 1;
#X obj 505 481 vsl 15 128 -10 10 0 0 empty empty empty 0 -9 0 10 -203904
-1 -1 6350 1;
#X obj 225 383 receive channel1;
#X obj 194 479 vsl 15 128 -10 10 0 0 empty empty empty 0 -9 0 10 -203904
-1 -1 6350 1;
#X obj 264 478 vsl 15 128 -10 10 0 0 empty empty empty 0 -9 0 10 -203904
-1 -1 6350 1;
#X obj 339 478 vsl 15 128 -10 10 0 0 empty empty empty 0 -9 0 10 -203904
-1 -1 6350 1;
#X msg -6 168 \$1;
#X floatatom -6 192 5 0 0 0 aX - -;
#X floatatom 50 192 5 0 0 0 aY - -;
#X floatatom 110 194 5 0 0 0 aZ - -;
#X msg 110 169 \$3;
#X msg 50 168 \$2;
#X floatatom 194 195 5 0 0 0 alpha - -;
#X floatatom 263 195 5 0 0 0 beta - -;
#X floatatom 338 196 5 0 0 0 gamma - -;
#X msg 194 171 \$4;
#X msg 263 171 \$5;
#X msg 338 171 \$6;
#X text 230 358 Rotation Data;
#X msg 420 173 \$7;
#X msg 503 173 \$8;
#X floatatom 420 199 5 0 0 0 touchX - -;
#X floatatom 503 198 0 0 0 0 touchY - -;
#X text 433 359 Touch Data;
#X text 5 215 comment;
#X text 11 358 Acceleration Data;
#X obj 110 223 vsl 15 128 -10 10 0 0 empty empty empty 0 -9 0 10 -203904
-1 -1 6350 1;
#X obj 50 223 vsl 15 128 -10 10 0 0 empty empty empty 0 -9 0 10 -203904
-1 -1 6400 1;
#X obj -6 221 vsl 15 128 -10 10 0 0 empty empty empty 0 -9 0 10 -203904
-1 -1 6350 1;
#X obj 421 225 vsl 15 128 -10 10 0 0 empty empty empty 0 -9 0 10 -203904
-1 -1 6350 1;
#X obj 505 225 vsl 15 128 -10 10 0 0 empty empty empty 0 -9 0 10 -203904
-1 -1 6350 1;
#X obj 194 223 vsl 15 128 -10 10 0 0 empty empty empty 0 -9 0 10 -203904
-1 -1 6350 1;
#X obj 264 222 vsl 15 128 -10 10 0 0 empty empty empty 0 -9 0 10 -203904
-1 -1 6350 1;
#X obj 339 222 vsl 15 128 -10 10 0 0 empty empty empty 0 -9 0 10 -203904
-1 -1 6350 1;
#X obj 225 127 receive channel0;
#X text 324 55 <-- channels 0-10 are broadcast;
#X obj 64 58 routeOSC /channel0/motion;
#X obj 64 81 routeOSC /channel1/motion;
#X obj 63 103 routeOSC /channel2/motion;
#X obj 236 58 send channel0;
#X obj 235 81 send channel1;
#X obj 235 102 send channel2;
#X connect 0 0 63 0;
#X connect 0 0 64 0;
#X connect 0 0 65 0;
#X connect 2 0 0 0;
#X connect 4 0 5 0;
#X connect 5 0 26 0;
#X connect 6 0 25 0;
#X connect 7 0 24 0;
#X connect 8 0 7 0;
#X connect 9 0 6 0;
#X connect 10 0 30 0;
#X connect 11 0 31 0;
#X connect 12 0 32 0;
#X connect 13 0 10 0;
#X connect 14 0 11 0;
#X connect 15 0 12 0;
#X connect 17 0 19 0;
#X connect 18 0 20 0;
#X connect 19 0 27 0;
#X connect 20 0 28 0;
#X connect 29 0 4 0;
#X connect 29 0 9 0;
#X connect 29 0 8 0;
#X connect 29 0 13 0;
#X connect 29 0 14 0;
#X connect 29 0 15 0;
#X connect 29 0 17 0;
#X connect 29 0 18 0;
#X connect 33 0 34 0;
#X connect 34 0 55 0;
#X connect 35 0 54 0;
#X connect 36 0 53 0;
#X connect 37 0 36 0;
#X connect 38 0 35 0;
#X connect 39 0 58 0;
#X connect 40 0 59 0;
#X connect 41 0 60 0;
#X connect 42 0 39 0;
#X connect 43 0 40 0;
#X connect 44 0 41 0;
#X connect 46 0 48 0;
#X connect 47 0 49 0;
#X connect 48 0 56 0;
#X connect 49 0 57 0;
#X connect 61 0 33 0;
#X connect 61 0 38 0;
#X connect 61 0 37 0;
#X connect 61 0 42 0;
#X connect 61 0 43 0;
#X connect 61 0 44 0;
#X connect 61 0 46 0;
#X connect 61 0 47 0;
#X connect 63 1 66 0;
#X connect 64 1 67 0;
#X connect 65 1 68 0;
